<svg id="svg" version="1.1" xmlns="http://www.w3.org/2000/svg" xmlns:xlink="http://www.w3.org/1999/xlink" width="400" height="400" viewBox="0, 0, 400,400"><g id="svgg"><path id="path0" d="M192.904 16.286 C 86.383 20.375,5.568 114.191,17.260 220.182 C 28.413 321.283,119.743 394.184,220.833 382.679 C 321.816 371.186,394.575 279.392,382.608 178.581 C 371.280 83.147,288.823 12.604,192.904 16.286 M208.398 42.328 C 296.621 47.017,363.934 123.381,357.482 211.458 C 351.428 294.120,282.795 357.893,199.935 357.851 C 105.218 357.804,32.031 275.235,43.235 181.066 C 53.029 98.751,125.448 37.920,208.398 42.328 M92.969 119.727 L 92.969 146.484 119.661 146.484 L 146.354 146.484 146.354 200.065 L 146.354 253.646 119.661 253.646 L 92.969 253.646 92.969 280.404 L 92.969 307.161 145.443 307.161 L 197.917 307.161 197.917 226.497 L 197.917 145.833 200.521 145.833 L 203.125 145.833 203.125 226.497 L 203.125 307.161 254.688 307.161 L 306.250 307.161 306.250 253.190 L 306.250 199.219 281.055 199.219 L 255.859 199.219 255.859 226.432 L 255.859 253.646 253.255 253.646 L 250.651 253.646 250.651 199.740 L 250.651 145.833 278.451 145.833 L 306.250 145.833 306.250 119.401 L 306.250 92.969 199.609 92.969 L 92.969 92.969 92.969 119.727 " stroke="none" fill="#ffffff" fill-rule="evenodd"></path></g></svg>